<?xml version="1.0" standalone="no"?>
<!DOCTYPE svg PUBLIC "-//W3C//DTD SVG 20010904//EN"
 "http://www.w3.org/TR/2001/REC-SVG-20010904/DTD/svg10.dtd">
<svg version="1.0" xmlns="http://www.w3.org/2000/svg"
 width="225.000000pt" height="225.000000pt" viewBox="0 0 225.000000 225.000000"
 preserveAspectRatio="xMidYMid meet">

<g transform="translate(0.000000,225.000000) scale(0.100000,-0.100000)"
fill="#000000" stroke="none">
<path d="M288 1785 c-15 -9 -32 -24 -38 -35 -6 -12 -10 -239 -10 -653 0 -545
2 -636 14 -640 23 -9 1449 -8 1462 1 15 9 297 896 292 919 -3 17 -43 18 -718
18 l-715 0 -132 -413 c-72 -228 -134 -416 -137 -420 -3 -3 -6 254 -6 570 0
476 2 578 14 587 9 8 88 11 267 9 l254 -3 3 -77 c2 -48 8 -80 16 -87 9 -8 135
-10 417 -9 l404 3 0 25 0 25 -381 3 -382 2 -4 65 c-3 55 -8 70 -31 93 l-27 27
-268 2 c-222 2 -272 0 -294 -12z m1642 -452 c1 -5 -57 -189 -127 -410 l-127
-403 -653 0 c-359 0 -653 3 -653 7 0 8 235 749 250 788 l10 25 650 0 c357 0
650 -3 650 -7z"/>
</g>
</svg>
