<?xml version="1.0" standalone="no"?>
<!DOCTYPE svg PUBLIC "-//W3C//DTD SVG 20010904//EN"
 "http://www.w3.org/TR/2001/REC-SVG-20010904/DTD/svg10.dtd">
<svg version="1.0" xmlns="http://www.w3.org/2000/svg"
 width="225.000000pt" height="225.000000pt" viewBox="0 0 225.000000 225.000000"
 preserveAspectRatio="xMidYMid meet">

<g transform="translate(0.000000,225.000000) scale(0.100000,-0.100000)"
fill="#000000" stroke="none">
<path d="M373 1857 c-60 -22 -117 -72 -148 -128 l-30 -54 -3 -660 c-2 -442 0
-672 7 -696 15 -51 48 -88 95 -110 39 -18 83 -19 831 -19 745 0 792 1 830 19
48 22 69 44 90 94 13 31 15 110 15 544 0 496 0 508 -21 551 -13 26 -38 54 -62
70 l-40 27 -313 3 -312 3 -4 87 c-5 107 -39 178 -106 226 -75 54 -81 54 -452
54 -239 0 -355 -3 -377 -11z"/>
</g>
</svg>
